<svg width="50" height="50" viewBox="0 0 50 50" fill="none" xmlns="http://www.w3.org/2000/svg">
<circle cx="25" cy="24.9998" r="24" transform="rotate(-179.724 25 24.9998)" fill="#D9D9D9"/>
<path d="M31.8537 38.7531C31.8512 39.2597 31.7291 39.6991 31.4873 40.0713C31.2455 40.4435 30.9375 40.722 30.5633 40.9069C30.1889 41.1184 29.7884 41.2231 29.3617 41.2211C28.9083 41.2455 28.4953 41.1636 28.1229 40.9751C27.2452 40.4909 26.4481 39.9003 25.7314 39.2035C24.988 38.5333 24.2713 37.8498 23.5813 37.1532C22.4662 36.1344 21.4578 35.1029 20.5562 34.0585C19.6544 33.0408 18.8324 32.0635 18.0903 31.1266C16.1561 28.5306 15.1923 26.5526 15.1989 25.1926C15.2075 23.406 17.7317 19.7648 22.7716 14.269C23.0666 13.9237 23.3884 13.5519 23.737 13.1536C24.0856 12.7553 24.4475 12.357 24.8228 11.9588C25.1979 11.5873 25.5862 11.2558 25.9876 10.9644C26.3891 10.6464 26.8037 10.395 27.2312 10.2104C28.0594 9.89442 28.7796 9.85789 29.3918 10.1008C29.9773 10.3437 30.4021 10.7324 30.6662 11.267C30.9303 11.8016 30.994 12.4153 30.8573 13.1079C30.7205 13.8273 30.3305 14.5054 29.6875 15.1423C29.205 15.6467 28.7093 16.151 28.2002 16.6552C27.6644 17.1593 27.1419 17.6768 26.6327 18.2076C25.7754 19.0302 24.9713 19.8663 24.2205 20.716C23.4698 21.5658 22.7588 22.4557 22.0876 23.3858C21.7385 23.8908 21.5495 24.3832 21.5205 24.8631C21.4915 25.3429 21.5693 25.7967 21.754 26.2242C21.9386 26.6518 22.1899 27.0663 22.508 27.4679C22.826 27.8694 23.1442 28.2576 23.4624 28.6325C24.3902 29.7836 25.3582 30.8816 26.3665 31.9265C27.3482 32.9713 28.3967 33.963 29.5122 34.9017C29.9634 35.3572 30.3217 35.7056 30.5872 35.9469C30.8526 36.2149 31.0382 36.4291 31.1441 36.5896C31.4093 36.8842 31.5944 37.2184 31.6993 37.5923C31.8041 37.9661 31.8556 38.3531 31.8537 38.7531Z" fill="black"/>
</svg>
