<svg width="48" height="48" viewBox="0 0 48 48" fill="none" xmlns="http://www.w3.org/2000/svg">
<circle cx="24" cy="24" r="24" fill="#D9D9D9"/>
<path d="M17.08 10.28C17.08 9.77333 17.2 9.33333 17.44 8.96C17.68 8.58667 17.9867 8.30667 18.36 8.12C18.7333 7.90666 19.1333 7.8 19.56 7.8C20.0133 7.77333 20.4267 7.85333 20.8 8.04C21.68 8.52 22.48 9.10667 23.2 9.8C23.9467 10.4667 24.6667 11.1467 25.36 11.84C26.48 12.8533 27.4933 13.88 28.4 14.92C29.3067 15.9333 30.1333 16.9067 30.88 17.84C32.8267 20.4267 33.8 22.4 33.8 23.76C33.8 25.5467 31.2933 29.2 26.28 34.72C25.9867 35.0667 25.6667 35.44 25.32 35.84C24.9733 36.24 24.6133 36.64 24.24 37.04C23.8667 37.4133 23.48 37.7467 23.08 38.04C22.68 38.36 22.2667 38.6133 21.84 38.8C21.0133 39.12 20.2933 39.16 19.68 38.92C19.0933 38.68 18.6667 38.2933 18.4 37.76C18.1333 37.2267 18.0667 36.6133 18.2 35.92C18.3333 35.2 18.72 34.52 19.36 33.88C19.84 33.3733 20.3333 32.8667 20.84 32.36C21.3733 31.8533 21.8933 31.3333 22.4 30.8C23.2533 29.9733 24.0533 29.1333 24.8 28.28C25.5467 27.4267 26.2533 26.5333 26.92 25.6C27.2667 25.0933 27.4533 24.6 27.48 24.12C27.5067 23.64 27.4267 23.1867 27.24 22.76C27.0533 22.3333 26.8 21.92 26.48 21.52C26.16 21.12 25.84 20.7333 25.52 20.36C24.5867 19.2133 23.6133 18.12 22.6 17.08C21.6133 16.04 20.56 15.0533 19.44 14.12C18.9867 13.6667 18.6267 13.32 18.36 13.08C18.0933 12.8133 17.9067 12.6 17.8 12.44C17.5333 12.1467 17.3467 11.8133 17.24 11.44C17.1333 11.0667 17.08 10.68 17.08 10.28Z" fill="black"/>
</svg>
