<svg width="372" height="88" viewBox="0 0 372 88" fill="none" xmlns="http://www.w3.org/2000/svg">
<path d="M15.232 65.024C10.4107 65.024 6.86933 63.808 4.608 61.376C2.34667 58.944 1.216 54.912 1.216 49.28C1.216 44.8 1.96267 39.9787 3.456 34.816C4.992 29.6533 7.424 25.2373 10.752 21.568C14.1227 17.856 18.3893 16 23.552 16C26.752 16 29.3333 16.704 31.296 18.112C33.2587 19.52 34.24 21.6747 34.24 24.576C34.24 26.4107 33.8773 27.8613 33.152 28.928C32.4267 29.952 31.296 30.464 29.76 30.464C28.224 30.464 27.008 29.9093 26.112 28.8C26.88 28.416 27.5627 27.648 28.16 26.496C28.7573 25.344 29.056 24.1493 29.056 22.912C29.056 21.76 28.736 20.8213 28.096 20.096C27.4987 19.3707 26.5173 19.008 25.152 19.008C22.8907 19.008 20.736 20.5653 18.688 23.68C16.64 26.752 14.976 30.6347 13.696 35.328C12.4587 40.0213 11.84 44.544 11.84 48.896C11.84 52.1387 12.3947 54.6133 13.504 56.32C14.6133 58.0267 16.6187 58.88 19.52 58.88C22.0373 58.88 24.3627 58.3253 26.496 57.216C28.6293 56.1067 30.464 54.528 32 52.48L33.472 53.12C32.4053 55.808 30.8267 58.048 28.736 59.84C26.6453 61.632 24.4053 62.9547 22.016 63.808C19.6267 64.6187 17.3653 65.024 15.232 65.024ZM41.1565 64.256C37.9992 64.256 35.5032 63.4453 33.6685 61.824C31.8338 60.2027 30.9165 57.6427 30.9165 54.144C30.9165 51.2427 31.5138 48.0213 32.7085 44.48C33.9032 40.9387 35.8232 37.888 38.4685 35.328C41.1138 32.7253 44.4418 31.424 48.4525 31.424C53.9138 31.424 56.6445 34.8373 56.6445 41.664V41.728C56.7725 41.7707 57.0072 41.792 57.3485 41.792C58.7565 41.792 60.3778 41.4293 62.2125 40.704C64.0472 39.936 65.7112 39.0187 67.2045 37.952L67.7805 39.68C66.5432 41.0027 64.9218 42.1333 62.9165 43.072C60.9538 43.968 58.7992 44.608 56.4525 44.992C56.1112 48.8747 55.2365 52.2667 53.8285 55.168C52.4205 58.0693 50.6072 60.3093 48.3885 61.888C46.1698 63.4667 43.7592 64.256 41.1565 64.256ZM43.7165 58.496C44.7405 58.496 45.7645 57.92 46.7885 56.768C47.8125 55.5733 48.7085 53.9733 49.4765 51.968C50.2445 49.92 50.7992 47.6587 51.1405 45.184C49.9885 44.928 49.4125 44.032 49.4125 42.496C49.4125 40.7467 50.0738 39.5947 51.3965 39.04C51.3112 37.632 51.0978 36.672 50.7565 36.16C50.4152 35.6053 49.8178 35.328 48.9645 35.328C47.5565 35.328 46.1912 36.352 44.8685 38.4C43.5458 40.448 42.4792 42.9013 41.6685 45.76C40.8578 48.6187 40.4525 51.136 40.4525 53.312C40.4525 55.36 40.6872 56.7467 41.1565 57.472C41.6258 58.1547 42.4792 58.496 43.7165 58.496ZM66.2735 64.384C64.2255 64.384 62.5615 63.744 61.2815 62.464C60.0442 61.184 59.4255 59.264 59.4255 56.704C59.4255 55.6373 59.5962 54.2507 59.9375 52.544L66.7855 20.48L76.2575 19.2L68.8975 53.76C68.7268 54.4 68.6415 55.0827 68.6415 55.808C68.6415 56.6613 68.8335 57.28 69.2175 57.664C69.6442 58.0053 70.3268 58.176 71.2655 58.176C72.5028 58.176 73.6548 57.664 74.7215 56.64C75.7882 55.5733 76.5562 54.208 77.0255 52.544H79.7135C78.1348 57.152 76.1082 60.288 73.6335 61.952C71.1588 63.5733 68.7055 64.384 66.2735 64.384ZM86.344 64.256C83.1867 64.256 80.6907 63.4453 78.856 61.824C77.0213 60.2027 76.104 57.6427 76.104 54.144C76.104 51.2427 76.7013 48.0213 77.896 44.48C79.0907 40.9387 81.0107 37.888 83.656 35.328C86.3013 32.7253 89.6293 31.424 93.64 31.424C99.1013 31.424 101.832 34.8373 101.832 41.664V41.728C101.96 41.7707 102.195 41.792 102.536 41.792C103.944 41.792 105.565 41.4293 107.4 40.704C109.235 39.936 110.899 39.0187 112.392 37.952L112.968 39.68C111.731 41.0027 110.109 42.1333 108.104 43.072C106.141 43.968 103.987 44.608 101.64 44.992C101.299 48.8747 100.424 52.2667 99.016 55.168C97.608 58.0693 95.7947 60.3093 93.576 61.888C91.3573 63.4667 88.9467 64.256 86.344 64.256ZM88.904 58.496C89.928 58.496 90.952 57.92 91.976 56.768C93 55.5733 93.896 53.9733 94.664 51.968C95.432 49.92 95.9867 47.6587 96.328 45.184C95.176 44.928 94.6 44.032 94.6 42.496C94.6 40.7467 95.2613 39.5947 96.584 39.04C96.4987 37.632 96.2853 36.672 95.944 36.16C95.6027 35.6053 95.0053 35.328 94.152 35.328C92.744 35.328 91.3787 36.352 90.056 38.4C88.7333 40.448 87.6667 42.9013 86.856 45.76C86.0453 48.6187 85.64 51.136 85.64 53.312C85.64 55.36 85.8747 56.7467 86.344 57.472C86.8133 58.1547 87.6667 58.496 88.904 58.496ZM109.477 32H118.693L117.861 35.968C119.312 34.688 120.613 33.7067 121.765 33.024C122.96 32.3413 124.24 32 125.605 32C126.97 32 128.037 32.4693 128.805 33.408C129.616 34.3467 130.021 35.4773 130.021 36.8C130.021 38.0373 129.616 39.1253 128.805 40.064C127.994 41.0027 126.864 41.472 125.413 41.472C124.474 41.472 123.834 41.2587 123.493 40.832C123.194 40.3627 122.96 39.7013 122.789 38.848C122.661 38.2933 122.533 37.888 122.405 37.632C122.277 37.376 122.042 37.248 121.701 37.248C120.805 37.248 120.037 37.44 119.397 37.824C118.8 38.1653 118.01 38.784 117.029 39.68L111.909 64H102.693L109.477 32ZM157.847 77.248C154.732 77.248 152.215 76.4373 150.295 74.816C148.417 73.2373 147.479 71.1467 147.479 68.544C147.479 66.9227 147.863 65.4293 148.631 64.064C149.399 62.6987 150.444 61.632 151.767 60.864C153.089 60.0533 154.54 59.648 156.119 59.648C157.74 59.648 159.041 60.0533 160.023 60.864C161.047 61.6747 161.559 62.7413 161.559 64.064C161.559 65.088 161.324 65.8987 160.855 66.496C160.471 65.984 159.937 65.5787 159.255 65.28C158.615 64.9813 157.932 64.832 157.207 64.832C155.927 64.832 154.881 65.2587 154.071 66.112C153.26 66.9653 152.855 68.0747 152.855 69.44C152.855 70.8053 153.239 71.9147 154.007 72.768C154.817 73.6213 155.82 74.048 157.015 74.048C158.508 74.048 159.788 73.3867 160.855 72.064C161.921 70.7413 162.732 68.7787 163.287 66.176L166.487 52.032H166.231C165.079 53.6533 163.671 54.8907 162.007 55.744C160.385 56.5973 158.593 57.024 156.631 57.024C154.156 57.024 151.98 56.3627 150.103 55.04C148.225 53.7173 146.775 51.84 145.751 49.408C144.769 46.9333 144.279 44.0747 144.279 40.832C144.279 36.1387 145.303 31.872 147.351 28.032C149.399 24.1493 152.215 21.0987 155.799 18.88C159.383 16.6613 163.329 15.552 167.639 15.552C171.265 15.552 174.124 16.3413 176.215 17.92C178.348 19.4987 179.415 21.6533 179.415 24.384C179.415 26.2187 178.967 27.6907 178.071 28.8C177.175 29.9093 176.001 30.464 174.551 30.464C173.74 30.464 172.972 30.2933 172.247 29.952C171.564 29.6107 170.988 29.12 170.519 28.48C171.287 27.968 171.927 27.1573 172.439 26.048C172.993 24.896 173.271 23.744 173.271 22.592C173.271 21.312 172.887 20.3307 172.119 19.648C171.393 18.9227 170.348 18.56 168.983 18.56C166.508 18.56 164.119 19.6693 161.815 21.888C159.511 24.064 157.655 26.9227 156.247 30.464C154.839 34.0053 154.135 37.7173 154.135 41.6C154.135 44.8 154.647 47.2533 155.671 48.96C156.695 50.624 158.167 51.456 160.087 51.456C162.391 51.456 164.417 50.24 166.167 47.808C167.959 45.376 169.388 41.8347 170.455 37.184L178.007 37.248L173.335 58.752C171.969 65.1093 170.028 69.7813 167.511 72.768C165.036 75.7547 161.815 77.248 157.847 77.248ZM189.215 64.384C186.057 64.384 183.604 63.5733 181.855 61.952C180.105 60.288 179.23 57.7067 179.23 54.208C179.23 51.264 179.806 48.0213 180.959 44.48C182.111 40.9387 183.988 37.888 186.591 35.328C189.193 32.7253 192.5 31.424 196.51 31.424C201.204 31.424 203.551 33.472 203.551 37.568C203.551 39.9573 202.868 42.1547 201.503 44.16C200.137 46.1653 198.324 47.7867 196.062 49.024C193.801 50.2187 191.391 50.9013 188.831 51.072C188.745 52.352 188.703 53.2053 188.703 53.632C188.703 55.7227 189.065 57.152 189.791 57.92C190.516 58.6453 191.689 59.008 193.311 59.008C195.615 59.008 197.577 58.4747 199.199 57.408C200.863 56.3413 202.676 54.72 204.639 52.544H206.815C202.079 60.4373 196.212 64.384 189.215 64.384ZM189.343 48C190.921 47.9147 192.415 47.36 193.823 46.336C195.273 45.312 196.425 44.0107 197.279 42.432C198.175 40.8533 198.623 39.1893 198.623 37.44C198.623 35.6907 198.089 34.816 197.023 34.816C195.487 34.816 193.972 36.16 192.479 38.848C191.028 41.536 189.983 44.5867 189.343 48ZM227.729 64.384C225.126 64.384 223.206 63.7013 221.969 62.336C220.774 60.928 220.177 59.2 220.177 57.152C220.177 56.256 220.284 55.2533 220.497 54.144C220.71 52.992 220.924 51.8827 221.137 50.816C221.393 49.7493 221.564 49.0667 221.649 48.768C221.99 47.2747 222.31 45.8027 222.609 44.352C222.908 42.9013 223.057 41.728 223.057 40.832C223.057 38.656 222.289 37.568 220.753 37.568C219.644 37.568 218.662 38.1227 217.809 39.232C216.956 40.2987 216.273 41.7067 215.761 43.456L211.409 64H202.193L208.977 32H218.193L217.489 35.328C219.622 32.9387 222.118 31.744 224.977 31.744C227.153 31.744 228.881 32.3413 230.161 33.536C231.441 34.7307 232.081 36.544 232.081 38.976C232.081 40.2133 231.932 41.6 231.633 43.136C231.334 44.6293 230.908 46.464 230.353 48.64C230.012 49.9627 229.692 51.264 229.393 52.544C229.137 53.7813 229.009 54.7627 229.009 55.488C229.009 56.3413 229.201 57.0027 229.585 57.472C229.969 57.9413 230.63 58.176 231.569 58.176C232.849 58.176 233.873 57.728 234.641 56.832C235.409 55.8933 236.177 54.464 236.945 52.544H239.633C238.054 57.2373 236.22 60.3947 234.129 62.016C232.081 63.5947 229.948 64.384 227.729 64.384ZM246.09 64.384C242.932 64.384 240.479 63.5733 238.73 61.952C236.98 60.288 236.105 57.7067 236.105 54.208C236.105 51.264 236.681 48.0213 237.834 44.48C238.986 40.9387 240.863 37.888 243.466 35.328C246.068 32.7253 249.375 31.424 253.385 31.424C258.079 31.424 260.426 33.472 260.426 37.568C260.426 39.9573 259.743 42.1547 258.378 44.16C257.012 46.1653 255.199 47.7867 252.938 49.024C250.676 50.2187 248.266 50.9013 245.706 51.072C245.62 52.352 245.578 53.2053 245.578 53.632C245.578 55.7227 245.94 57.152 246.666 57.92C247.391 58.6453 248.564 59.008 250.186 59.008C252.49 59.008 254.452 58.4747 256.074 57.408C257.738 56.3413 259.551 54.72 261.514 52.544H263.69C258.954 60.4373 253.087 64.384 246.09 64.384ZM246.218 48C247.796 47.9147 249.29 47.36 250.698 46.336C252.148 45.312 253.3 44.0107 254.154 42.432C255.05 40.8533 255.498 39.1893 255.498 37.44C255.498 35.6907 254.964 34.816 253.898 34.816C252.362 34.816 250.847 36.16 249.354 38.848C247.903 41.536 246.858 44.5867 246.218 48ZM265.852 32H275.068L274.236 35.968C275.687 34.688 276.988 33.7067 278.14 33.024C279.335 32.3413 280.615 32 281.98 32C283.345 32 284.412 32.4693 285.18 33.408C285.991 34.3467 286.396 35.4773 286.396 36.8C286.396 38.0373 285.991 39.1253 285.18 40.064C284.369 41.0027 283.239 41.472 281.788 41.472C280.849 41.472 280.209 41.2587 279.868 40.832C279.569 40.3627 279.335 39.7013 279.164 38.848C279.036 38.2933 278.908 37.888 278.78 37.632C278.652 37.376 278.417 37.248 278.076 37.248C277.18 37.248 276.412 37.44 275.772 37.824C275.175 38.1653 274.385 38.784 273.404 39.68L268.284 64H259.068L265.852 32ZM293.243 64.384C290.811 64.384 288.784 63.552 287.163 61.888C285.541 60.224 284.73 57.6213 284.73 54.08C284.73 50.9227 285.349 47.616 286.587 44.16C287.867 40.6613 289.744 37.7173 292.219 35.328C294.736 32.896 297.723 31.68 301.179 31.68C302.928 31.68 304.229 31.9787 305.083 32.576C305.936 33.1733 306.363 33.9627 306.363 34.944V35.392L307.067 32H316.283L311.675 53.76C311.504 54.4 311.419 55.0827 311.419 55.808C311.419 57.6427 312.293 58.56 314.043 58.56C315.237 58.56 316.261 58.0053 317.115 56.896C318.011 55.7867 318.715 54.336 319.227 52.544H321.915C320.336 57.152 318.373 60.288 316.027 61.952C313.723 63.5733 311.397 64.384 309.051 64.384C307.259 64.384 305.808 63.8933 304.699 62.912C303.632 61.888 302.992 60.416 302.779 58.496C301.541 60.2453 300.155 61.6747 298.619 62.784C297.125 63.8507 295.333 64.384 293.243 64.384ZM297.403 58.176C298.469 58.176 299.515 57.6853 300.539 56.704C301.605 55.68 302.331 54.2933 302.715 52.544L305.787 38.08C305.787 37.5253 305.573 36.992 305.147 36.48C304.72 35.9253 304.059 35.648 303.163 35.648C301.456 35.648 299.92 36.6507 298.555 38.656C297.189 40.6187 296.123 43.008 295.355 45.824C294.587 48.5973 294.203 51.0507 294.203 53.184C294.203 55.3173 294.501 56.6827 295.099 57.28C295.739 57.8773 296.507 58.176 297.403 58.176ZM325.586 64.384C323.538 64.384 321.874 63.744 320.594 62.464C319.357 61.184 318.738 59.264 318.738 56.704C318.738 55.6373 318.909 54.2507 319.25 52.544L323.09 34.56H320.978L321.49 32H323.602L325.522 23.168L334.994 21.888L332.818 32H336.658L336.146 34.56H332.306L328.21 53.76C328.039 54.4 327.954 55.0827 327.954 55.808C327.954 56.6613 328.146 57.28 328.53 57.664C328.957 58.0053 329.639 58.176 330.578 58.176C331.815 58.176 332.967 57.664 334.034 56.64C335.101 55.5733 335.869 54.208 336.338 52.544H339.026C337.447 57.152 335.421 60.288 332.946 61.952C330.471 63.5733 328.018 64.384 325.586 64.384ZM345.337 64.384C342.222 64.384 339.79 63.5733 338.041 61.952C336.291 60.288 335.416 57.7067 335.416 54.208C335.416 51.264 335.992 48.0213 337.145 44.48C338.297 40.9387 340.174 37.888 342.777 35.328C345.379 32.7253 348.686 31.424 352.697 31.424C357.39 31.424 359.737 33.472 359.737 37.568C359.737 39.9573 359.054 42.1547 357.689 44.16C356.323 46.1653 354.51 47.7867 352.249 49.024C349.987 50.2187 347.577 50.9013 345.017 51.072C344.931 52.0107 344.889 52.6507 344.889 52.992C344.889 56.5333 346.211 58.304 348.857 58.304C350.051 58.304 351.331 57.984 352.697 57.344C354.062 56.704 355.299 55.8933 356.409 54.912C355.257 61.2267 351.566 64.384 345.337 64.384ZM345.465 48C347.086 47.9573 348.601 47.424 350.009 46.4C351.459 45.376 352.611 44.0747 353.465 42.496C354.361 40.8747 354.809 39.1893 354.809 37.44C354.809 35.6907 354.275 34.816 353.208 34.816C351.715 34.816 350.222 36.1813 348.729 38.912C347.278 41.6 346.19 44.6293 345.465 48Z" fill="black"/>
<ellipse rx="1.33925" ry="84.5632" transform="matrix(-8.79303e-05 1 -1 -0.000182758 259.436 71.355)" fill="#DA4E4E" fill-opacity="0.8"/>
<ellipse rx="1.27548" ry="84.5632" transform="matrix(-8.79303e-05 1 -1 -0.000182758 259.436 73.0767)" fill="#E97B4C" fill-opacity="0.8"/>
<ellipse rx="1.33925" ry="84.5632" transform="matrix(-8.79303e-05 1 -1 -0.000182758 259.435 74.7989)" fill="#E9D94C" fill-opacity="0.8"/>
<ellipse rx="1.27548" ry="84.5632" transform="matrix(-8.79303e-05 1 -1 -0.000182758 259.436 76.3931)" fill="#A4E94C" fill-opacity="0.8"/>
<ellipse rx="1.33925" ry="84.5632" transform="matrix(-8.79303e-05 1 -1 -0.000182758 259.436 77.9874)" fill="#4CCCE9" fill-opacity="0.8"/>
<ellipse rx="1.27548" ry="84.5632" transform="matrix(-8.79303e-05 1 -1 -0.000182758 259.435 79.7092)" fill="#C04CE9" fill-opacity="0.8"/>
<ellipse rx="1.33925" ry="56.3562" transform="matrix(-8.79303e-05 1 -1 -0.000182758 60.357 71.3497)" fill="#DA4E4E" fill-opacity="0.8"/>
<ellipse rx="1.27548" ry="56.3562" transform="matrix(-8.79303e-05 1 -1 -0.000182758 60.357 73.0718)" fill="#E97B4C" fill-opacity="0.8"/>
<ellipse rx="1.33925" ry="56.3562" transform="matrix(-8.79303e-05 1 -1 -0.000182758 60.3568 74.7936)" fill="#E9D94C" fill-opacity="0.8"/>
<ellipse rx="1.27548" ry="56.3562" transform="matrix(-8.79303e-05 1 -1 -0.000182758 60.3572 76.388)" fill="#A4E94C" fill-opacity="0.8"/>
<ellipse rx="1.33925" ry="56.3562" transform="matrix(-8.79303e-05 1 -1 -0.000182758 60.3567 77.9823)" fill="#4CCCE9" fill-opacity="0.8"/>
<ellipse rx="1.27548" ry="56.3562" transform="matrix(-8.79303e-05 1 -1 -0.000182758 60.3564 79.7041)" fill="#C04CE9" fill-opacity="0.8"/>
</svg>
